# xmcd CD database file
#
# Track frame offsets:
#	150
#	8761
#	30110
#	45399
#	66585
#	83378
#	107680
#	124604
#	141031
#	159412
#	176536
#
# Disc length: 2659 seconds
#
# Revision: 0
# Processed by: cddbd v1.5.2PL0 Copyright (c) Steve Scherf et al.
# Submitted via: CDex 1.70beta2
#
DISCID=780a610b
DTITLE=BIG D and ICY HOTT - In It To Win It
DYEAR=2000
DGENRE=Dirty South
TTITLE0=Like What
TTITLE1=Too Late To Run
TTITLE2=It´s Going Down
TTITLE3=Laid Back On The Kreep
TTITLE4=In It To Win It
TTITLE5=Devil Cops
TTITLE6=Got To Get With It
TTITLE7=Crime Pays
TTITLE8=It´s Like That
TTITLE9=World Gonna Turn
TTITLE10=Money Money
EXTD=YEAR: 2000
EXTT0=
EXTT1=
EXTT2=
EXTT3=
EXTT4=
EXTT5=
EXTT6=
EXTT7=
EXTT8=
EXTT9=
EXTT10=
PLAYORDER=
